<?xml version="1.0" encoding="UTF-8"?><svg id="Layer_2" xmlns="http://www.w3.org/2000/svg" viewBox="0 0 99.56 124.44"><defs><style>.cls-1{fill:#00273f;}.cls-1,.cls-2{stroke-width:0px;}.cls-2{fill:#fff;}</style></defs><g id="Layer_4"><polygon class="cls-2" points="90.56 115.72 8.56 115.72 8.56 8.72 61.56 8.72 90.56 37.72 90.56 115.72"/><path class="cls-1" d="m37.64,108.72h-14.52c-1.34,0-2.5-.51-3.51-1.54-1-1.03-1.5-2.27-1.5-3.71v-14.69c2.45-.28,4.55-1.24,6.3-2.88s2.63-3.66,2.63-6.05-.88-4.41-2.63-6.05-3.85-2.6-6.3-2.88v-14.69c0-1.28.5-2.43,1.5-3.46s2.17-1.54,3.51-1.54h14.69c.61-2.23,1.67-4.05,3.17-5.47s3.37-2.13,5.59-2.13,4.12.71,5.84,2.13c1.73,1.42,2.89,3.24,3.51,5.47h14.69c1.28,0,2.43.51,3.46,1.54s1.54,2.18,1.54,3.46v14.69c2.23.61,4.05,1.78,5.47,3.51,1.42,1.73,2.13,3.67,2.13,5.84s-.71,4.09-2.13,5.59-3.24,2.56-5.47,3.17v14.69c0,1.34-.51,2.5-1.54,3.51s-2.18,1.5-3.46,1.5h-14.52c-.28-2.67-1.34-4.83-3.17-6.47s-3.95-2.46-6.34-2.46c-2.11,0-4.06.82-5.84,2.46s-2.81,3.8-3.09,6.47Z"/><path class="cls-1" d="m9.33,124.44c-2.49,0-4.67-.93-6.53-2.8s-2.8-4.04-2.8-6.53V9.33c0-2.49.93-4.67,2.8-6.53S6.84,0,9.33,0h56.16l34.07,34.07v81.04c0,2.49-.93,4.67-2.8,6.53s-4.04,2.8-6.53,2.8H9.33ZM60.82,38.27V9.33H9.33v105.78h80.89V38.27h-29.4ZM9.33,9.33v28.93V9.33v105.78V9.33Z"/></g></svg>